<svg xmlns="http://www.w3.org/2000/svg" viewBox="0 0 100 100">
  <path d="M50 10 C30 10, 5 25, 5 50 C5 75, 30 90, 50 70 C70 90, 95 75, 95 50 C95 25, 70 10, 50 10Z" fill="#c9a0dc" opacity="0.9"/>
  <path d="M50 20 C38 20, 18 32, 18 50 C18 68, 38 78, 50 65 C62 78, 82 68, 82 50 C82 32, 62 20, 50 20Z" fill="#dbb8e8"/>
  <ellipse cx="50" cy="50" rx="3" ry="35" fill="#9b6fb0"/>
  <circle cx="35" cy="42" r="5" fill="#fff" opacity="0.5"/>
  <circle cx="65" cy="42" r="5" fill="#fff" opacity="0.5"/>
</svg>
