<svg xmlns="http://www.w3.org/2000/svg" viewBox="0 0 120 120">
  <rect width="120" height="120" rx="12" fill="#fffff0"/>
  <rect x="20" y="20" width="80" height="80" rx="4" fill="#fff8e1" stroke="#ffd93d" stroke-width="1.5"/>
  <!-- Party confetti at top and bottom -->
  <!-- Top edge burst -->
  <path d="M20 8 L23 2 L26 8 L23 14Z" fill="#ffd93d" transform="rotate(-35 23 8)"/>
  <path d="M45 5 L48 0 L51 5 L48 10Z" fill="#fce4a8" transform="rotate(40 48 5)"/>
  <circle cx="70" cy="6" r="5" fill="#ff6b8a" transform="rotate(-30 70 6)"/>
  <path d="M90 8 L93 2 L96 8Z" fill="#a8d8ea" transform="rotate(45 93 5)"/>
  <circle cx="108" cy="12" r="4" fill="#ffe066" transform="rotate(-40 108 12)"/>
  <path d="M8 10 L11 4 L14 10Z" fill="#c9a0dc" transform="rotate(30 11 7)"/>
  <!-- Bottom edge burst -->
  <path d="M25 112 L28 106 L31 112 L28 118Z" fill="#ffe066" transform="rotate(35 28 112)"/>
  <circle cx="50" cy="114" r="5" fill="#ffd93d" transform="rotate(-45 50 114)"/>
  <path d="M75 110 L78 104 L81 110Z" fill="#ff6b8a" transform="rotate(40 78 107)"/>
  <circle cx="100" cy="112" r="4" fill="#a8d8ea" transform="rotate(-30 100 112)"/>
  <path d="M10 108 L13 102 L16 108Z" fill="#fce4a8" transform="rotate(45 13 105)"/>
</svg>
