<svg xmlns="http://www.w3.org/2000/svg" viewBox="0 0 120 120">
  <rect width="120" height="120" rx="12" fill="#fff0f5"/>
  <rect x="20" y="20" width="80" height="80" rx="4" fill="#ffe4f0" stroke="#ffb6c1" stroke-width="1.5"/>
  <!-- Chaotic scattered stickers -->
  <path d="M12 12 L15 6 L18 12 L15 18Z" fill="#ffd93d" transform="rotate(20 15 12)"/>
  <circle cx="105" cy="10" r="7" fill="#ff6b8a" transform="rotate(-15 105 10)"/>
  <circle cx="8" cy="50" r="5" fill="#c9a0dc" transform="rotate(25 8 50)"/>
  <path d="M95 25 L98 19 L101 25 L98 31Z" fill="#a8d8ea" transform="rotate(-20 98 25)"/>
  <circle cx="15" cy="95" r="6" fill="#ffe066" transform="rotate(30 15 95)"/>
  <path d="M50 4 L53 0 L56 4 L53 8Z" fill="#fce4a8" transform="rotate(-25 53 4)"/>
  <circle cx="90" cy="60" r="4" fill="#ff6b8a" transform="rotate(15 90 60)"/>
  <path d="M108 90 L111 85 L114 90 L111 95Z" fill="#ffd93d" transform="rotate(-30 111 90)"/>
  <circle cx="50" cy="112" r="5" fill="#ffb6c1" transform="rotate(10 50 112)"/>
  <circle cx="75" cy="8" r="4" fill="#c9a0dc" transform="rotate(-20 75 8)"/>
  <path d="M5 75 L8 70 L11 75Z" fill="#a8d8ea" transform="rotate(25 8 72)"/>
  <circle cx="110" cy="110" r="5" fill="#ffe066" transform="rotate(-15 110 110)"/>
  <circle cx="30" cy="5" r="3" fill="#ff8fa3" transform="rotate(20 30 5)"/>
  <path d="M100 45 L103 40 L106 45Z" fill="#ffb6c1" transform="rotate(-25 103 42)"/>
</svg>
